<svg width="48" height="48" viewBox="0 0 48 48" fill="none" xmlns="http://www.w3.org/2000/svg">
<mask id="mask0_25710_1531" style="mask-type:luminance" maskUnits="userSpaceOnUse" x="0" y="0" width="48" height="48">
<path d="M0 3.8147e-06H48V48H0V3.8147e-06Z" fill="white"/>
</mask>
<g mask="url(#mask0_25710_1531)">
<path fill-rule="evenodd" clip-rule="evenodd" d="M26.0656 27.9989C24.6884 28.0017 23.3112 28.0017 21.9341 27.9989C21.5457 27.9981 21.2303 28.3122 21.2295 28.7006C21.2287 29.0889 21.5429 29.4043 21.9312 29.4051C23.3103 29.4079 24.6893 29.4079 26.0684 29.4051C26.4568 29.4043 26.7709 29.0889 26.7701 28.7006C26.7693 28.3122 26.4539 27.9981 26.0656 27.9989Z" fill="url(#paint0_linear_25710_1531)"/>
<path fill-rule="evenodd" clip-rule="evenodd" d="M33.9832 37.2889C34.1865 36.958 34.083 36.525 33.7521 36.3217C31.8728 35.1671 30.4569 33.2745 29.9748 30.9452C29.8961 30.5649 29.524 30.3204 29.1438 30.3991C28.7635 30.4778 28.519 30.8499 28.5977 31.2302C29.1619 33.9559 30.821 36.1714 33.016 37.5199C33.3469 37.7232 33.7799 37.6197 33.9832 37.2889Z" fill="url(#paint1_linear_25710_1531)"/>
<path fill-rule="evenodd" clip-rule="evenodd" d="M7.6152 38.686C12.9523 39.9747 18.2936 36.588 19.4027 31.2298C19.4814 30.8495 19.2369 30.4775 18.8567 30.3988C18.4764 30.3201 18.1043 30.5645 18.0256 30.9448C17.0779 35.5237 12.5106 38.4219 7.94428 37.3188L7.94203 37.3183C7.88441 37.3046 7.82752 37.2908 7.7692 37.2767L7.76884 37.2766C3.48152 36.2417 0.743487 32.0361 1.54525 27.7024C2.22347 24.0369 3.1445 20.3301 4.23903 16.5875C5.24091 13.164 8.3308 10.776 11.8982 10.6541L11.8984 10.6541C19.9663 10.3762 28.0333 10.3762 36.1012 10.6541L36.1014 10.6541C39.6688 10.776 42.7587 13.164 43.7606 16.5875C44.8551 20.3301 45.7761 24.0369 46.4543 27.7024C47.2561 32.0361 44.5181 36.2417 40.2307 37.2766L40.2304 37.2767C40.2022 37.2835 40.1737 37.2904 40.1445 37.2974L40.144 37.2975L40.1428 37.2978C40.1141 37.3047 40.0846 37.3117 40.0553 37.3188M7.6152 38.686C7.55542 38.6718 7.49675 38.6576 7.43949 38.6437L7.43888 38.6436C7.43876 38.6436 7.43864 38.6435 7.43852 38.6435C2.42792 37.4339 -0.775742 32.5178 0.162469 27.4466L0.162472 27.4466C0.851126 23.7246 1.78447 19.9707 2.88931 16.1927L2.88935 16.1926C4.06248 12.1837 7.67934 9.39122 11.85 9.24865C19.9502 8.96966 28.0494 8.96966 36.1496 9.24865C40.3202 9.39122 43.9371 12.1837 45.1102 16.1926L45.1103 16.1927C46.2151 19.9707 47.1485 23.7246 47.8371 27.4466C48.7753 32.5178 45.5717 37.4339 40.5611 38.6435C40.5313 38.6507 40.5013 38.6579 40.4722 38.6649C40.4428 38.672 40.4141 38.6788 40.3858 38.6857L40.3856 38.6858C38.8183 39.0644 37.2499 39.0394 35.7876 38.6794C35.4106 38.5866 35.1802 38.2056 35.273 37.8286C35.3658 37.4515 35.7467 37.2211 36.1238 37.3139C37.3727 37.6214 38.7124 37.6433 40.0551 37.3189" fill="url(#paint2_linear_25710_1531)"/>
<path fill-rule="evenodd" clip-rule="evenodd" d="M18.8135 30.3857C17.4177 30.3857 16.2861 29.2542 16.2861 27.8584C16.2861 26.4626 17.4177 25.3311 18.8135 25.3311C20.2093 25.3311 21.3409 26.4626 21.3409 27.8584C21.3409 29.2542 20.2093 30.3857 18.8135 30.3857ZM14.8799 27.8584C14.8799 30.0309 16.6411 31.792 18.8135 31.792C20.9859 31.792 22.7471 30.0309 22.7471 27.8584C22.7471 25.6859 20.9859 23.9249 18.8135 23.9249C16.6411 23.9249 14.8799 25.6859 14.8799 27.8584Z" fill="url(#paint3_linear_25710_1531)"/>
<path fill-rule="evenodd" clip-rule="evenodd" d="M29.1861 30.3857C27.7902 30.3857 26.6587 29.2542 26.6587 27.8584C26.6587 26.4626 27.7902 25.3311 29.1861 25.3311C30.5818 25.3311 31.7134 26.4626 31.7134 27.8584C31.7134 29.2542 30.5818 30.3857 29.1861 30.3857ZM25.2524 27.8584C25.2524 30.0309 27.0136 31.792 29.1861 31.792C31.3585 31.792 33.1197 30.0309 33.1197 27.8584C33.1197 25.6859 31.3585 23.9249 29.1861 23.9249C27.0136 23.9249 25.2524 25.6859 25.2524 27.8584Z" fill="url(#paint4_linear_25710_1531)"/>
<path fill-rule="evenodd" clip-rule="evenodd" d="M10.2615 26.7666L10.3033 26.7666C11.8313 26.7659 13.0728 25.5462 13.1141 24.0239L13.1141 24.0238C13.1153 23.9791 13.1164 23.9345 13.1176 23.8898C13.1623 23.8886 13.2069 23.8875 13.2516 23.8863L13.2517 23.8862C14.774 23.845 15.9938 22.6035 15.9944 21.0754V21.0337C15.9938 19.5056 14.774 18.2641 13.2517 18.2229L13.2516 18.2229C13.2069 18.2217 13.1623 18.2205 13.1176 18.2193C13.1164 18.1746 13.1153 18.1299 13.1141 18.0852L13.1141 18.0851C13.0728 16.5629 11.8313 15.3432 10.3033 15.3424H10.2615C8.73355 15.3432 7.49195 16.5628 7.45066 18.0851L7.45066 18.0852C7.44946 18.1299 7.44828 18.1746 7.44712 18.2193C7.40248 18.2205 7.35785 18.2217 7.31322 18.2229L7.31313 18.2229C5.79077 18.2641 4.57106 19.5056 4.57031 21.0336V21.0755C4.57106 22.6035 5.79077 23.845 7.31313 23.8862L7.31322 23.8863C7.35785 23.8875 7.40249 23.8886 7.44713 23.8898C7.44828 23.9345 7.44946 23.9791 7.45066 24.0238L7.45066 24.0239C7.49195 25.5462 8.73355 26.7659 10.2615 26.7666ZM10.3026 25.3604H10.2622C10.2622 25.3604 10.2621 25.3604 10.2621 25.3604C10.262 25.3604 10.2619 25.3604 10.2619 25.3604C9.50067 25.3598 8.87723 24.7518 8.8564 23.9859M10.3029 25.3604C10.3029 25.3604 10.3028 25.3604 10.3027 25.3604C10.3027 25.3604 10.3026 25.3604 10.3026 25.3604M10.3029 25.3604C11.0641 25.3598 11.6875 24.7519 11.7083 23.9859L10.3029 25.3604ZM8.8564 23.9858C8.84922 23.7199 8.84299 23.4541 8.83777 23.1884C8.83036 22.811 8.52624 22.5068 8.14882 22.4992C7.88293 22.4939 7.61704 22.4877 7.35125 22.4805M11.7083 23.9858C11.7155 23.7199 11.7217 23.454 11.727 23.1882L11.7083 23.9858ZM13.2136 22.4805C12.9477 22.4877 12.6818 22.4939 12.416 22.4992C12.0387 22.5068 11.7346 22.8109 11.727 23.1882M13.2137 22.4805C13.9798 22.4597 14.5877 21.8363 14.5882 21.0751C14.5882 21.075 14.5882 21.0749 14.5882 21.0748V21.0343M5.97656 21.0749C5.97656 21.0749 5.97656 21.0748 5.97656 21.0748V21.0343C5.97656 21.0343 5.97656 21.0342 5.97656 21.0342C5.97656 21.0341 5.97656 21.0341 5.97656 21.034C5.97712 20.2728 6.58504 19.6494 7.35116 19.6286C7.61698 19.6214 7.88282 19.6152 8.14858 19.61C8.5261 19.6026 8.83037 19.2983 8.83777 18.9208C8.84298 18.655 8.84922 18.3891 8.8564 18.1233M5.97656 21.0749C5.97656 21.075 5.97656 21.0751 5.97656 21.0751V21.0749ZM5.97656 21.0751C5.97712 21.8363 6.58504 22.4597 7.35116 22.4805L5.97656 21.0751ZM14.5882 21.034C14.5877 20.2729 13.9798 19.6494 13.2137 19.6286L14.5882 21.034ZM13.2136 19.6286C12.9477 19.6214 12.6819 19.6152 12.4162 19.61C12.0388 19.6026 11.7346 19.2984 11.727 18.921C11.7217 18.655 11.7155 18.3891 11.7083 18.1233M8.8564 18.1232C8.87723 17.3571 9.50086 16.749 10.2622 16.7487H10.3026C11.0639 16.749 11.6875 17.357 11.7083 18.1232" fill="url(#paint5_linear_25710_1531)"/>
<path fill-rule="evenodd" clip-rule="evenodd" d="M40.457 19.8584C39.9466 20.3688 39.1189 20.3688 38.6084 19.8584C38.098 19.3479 38.098 18.5202 38.6084 18.0098C39.1189 17.4993 39.9466 17.4993 40.457 18.0098C40.9675 18.5202 40.9675 19.3479 40.457 19.8584ZM37.6141 20.8527C38.6737 21.9124 40.3918 21.9124 41.4514 20.8527C42.5111 19.7931 42.5111 18.075 41.4514 17.0154C40.3918 15.9557 38.6737 15.9557 37.6141 17.0154C36.5544 18.075 36.5544 19.7931 37.6141 20.8527Z" fill="url(#paint6_linear_25710_1531)"/>
<path fill-rule="evenodd" clip-rule="evenodd" d="M36.2163 24.0996C35.7058 24.61 34.8782 24.61 34.3677 24.0996C33.8572 23.5891 33.8572 22.7614 34.3677 22.251C34.8782 21.7405 35.7058 21.7405 36.2163 22.251C36.7268 22.7614 36.7268 23.5891 36.2163 24.0996ZM33.3734 25.0939C34.433 26.1536 36.151 26.1536 37.2107 25.0939C38.2703 24.0343 38.2703 22.3162 37.2107 21.2566C36.151 20.1969 34.433 20.1969 33.3734 21.2566C32.3137 22.3162 32.3137 24.0343 33.3734 25.0939Z" fill="url(#paint7_linear_25710_1531)"/>
<path fill-rule="evenodd" clip-rule="evenodd" d="M20.0293 19.7577C20.0293 20.8623 20.9248 21.7578 22.0295 21.7578H26.19C27.2947 21.7578 28.1901 20.8623 28.1901 19.7577C28.1901 18.6529 27.2947 17.7574 26.19 17.7574H22.0295C20.9248 17.7574 20.0293 18.6529 20.0293 19.7577ZM22.0295 20.3516C21.7014 20.3516 21.4355 20.0857 21.4355 19.7577C21.4355 19.4295 21.7015 19.1637 22.0295 19.1637H26.19C26.518 19.1637 26.7839 19.4295 26.7839 19.7577C26.7839 20.0857 26.518 20.3516 26.19 20.3516H22.0295Z" fill="url(#paint8_linear_25710_1531)"/>
<path fill-rule="evenodd" clip-rule="evenodd" d="M16.4452 14.4339C16.6277 14.0912 16.4979 13.6654 16.1552 13.4828C15.4407 13.1022 14.9349 12.3781 14.8572 11.521C14.8091 10.9717 14.782 10.4243 14.7793 9.87926C14.7774 9.49094 14.461 9.17771 14.0727 9.17964C13.6844 9.18156 13.3711 9.49792 13.3731 9.88624C13.376 10.4734 13.4051 11.06 13.4564 11.6447L13.4565 11.6467C13.5778 12.9885 14.3713 14.1259 15.4941 14.724C15.8368 14.9065 16.2626 14.7767 16.4452 14.4339Z" fill="url(#paint9_linear_25710_1531)"/>
<path fill-rule="evenodd" clip-rule="evenodd" d="M30.7887 13.7666C26.7298 13.9253 22.67 13.9421 18.6104 13.8151C18.2222 13.803 17.8977 14.1078 17.8856 14.4959C17.8735 14.8841 18.1783 15.2086 18.5664 15.2207C22.6592 15.3487 26.7519 15.3318 30.8435 15.1718M33.1421 11.5213C33.0306 12.7589 32.0254 13.7185 30.7889 13.7666L30.7887 13.7666M33.1421 11.5213C33.1902 10.972 33.2172 10.4245 33.22 9.87944C33.2219 9.49112 33.5382 9.17789 33.9266 9.17981C34.3149 9.18174 34.6281 9.4981 34.6262 9.88642C34.6233 10.4736 34.5941 11.0601 34.5429 11.6449L34.5428 11.6464C34.3689 13.5829 32.7925 15.096 30.8437 15.1718" fill="url(#paint10_linear_25710_1531)"/>
</g>
<defs>
<linearGradient id="paint0_linear_25710_1531" x1="21.2295" y1="28.703" x2="26.7701" y2="28.703" gradientUnits="userSpaceOnUse">
<stop stop-color="#0CBAF1"/>
<stop offset="1" stop-color="#E95CE9"/>
</linearGradient>
<linearGradient id="paint1_linear_25710_1531" x1="28.583" y1="34.0042" x2="34.0873" y2="34.0042" gradientUnits="userSpaceOnUse">
<stop stop-color="#0CBAF1"/>
<stop offset="1" stop-color="#E95CE9"/>
</linearGradient>
<linearGradient id="paint2_linear_25710_1531" x1="-0.000488281" y1="23.9997" x2="48.0001" y2="23.9997" gradientUnits="userSpaceOnUse">
<stop stop-color="#0CBAF1"/>
<stop offset="1" stop-color="#E95CE9"/>
</linearGradient>
<linearGradient id="paint3_linear_25710_1531" x1="14.8799" y1="27.8584" x2="22.7471" y2="27.8584" gradientUnits="userSpaceOnUse">
<stop stop-color="#0CBAF1"/>
<stop offset="1" stop-color="#E95CE9"/>
</linearGradient>
<linearGradient id="paint4_linear_25710_1531" x1="25.2524" y1="27.8584" x2="33.1197" y2="27.8584" gradientUnits="userSpaceOnUse">
<stop stop-color="#0CBAF1"/>
<stop offset="1" stop-color="#E95CE9"/>
</linearGradient>
<linearGradient id="paint5_linear_25710_1531" x1="4.57031" y1="21.0545" x2="15.9944" y2="21.0545" gradientUnits="userSpaceOnUse">
<stop stop-color="#0CBAF1"/>
<stop offset="1" stop-color="#E95CE9"/>
</linearGradient>
<linearGradient id="paint6_linear_25710_1531" x1="36.8193" y1="18.9341" x2="42.2461" y2="18.9341" gradientUnits="userSpaceOnUse">
<stop stop-color="#0CBAF1"/>
<stop offset="1" stop-color="#E95CE9"/>
</linearGradient>
<linearGradient id="paint7_linear_25710_1531" x1="32.5786" y1="23.1753" x2="38.0054" y2="23.1753" gradientUnits="userSpaceOnUse">
<stop stop-color="#0CBAF1"/>
<stop offset="1" stop-color="#E95CE9"/>
</linearGradient>
<linearGradient id="paint8_linear_25710_1531" x1="20.0293" y1="19.7576" x2="28.1901" y2="19.7576" gradientUnits="userSpaceOnUse">
<stop stop-color="#0CBAF1"/>
<stop offset="1" stop-color="#E95CE9"/>
</linearGradient>
<linearGradient id="paint9_linear_25710_1531" x1="13.373" y1="11.9931" x2="16.5279" y2="11.9931" gradientUnits="userSpaceOnUse">
<stop stop-color="#0CBAF1"/>
<stop offset="1" stop-color="#E95CE9"/>
</linearGradient>
<linearGradient id="paint10_linear_25710_1531" x1="17.8853" y1="12.2427" x2="34.6262" y2="12.2427" gradientUnits="userSpaceOnUse">
<stop stop-color="#0CBAF1"/>
<stop offset="1" stop-color="#E95CE9"/>
</linearGradient>
</defs>
</svg>
